<svg width="51" height="41" viewBox="0 0 51 41" fill="none" xmlns="http://www.w3.org/2000/svg">
<path d="M5.02081 40.1665C3.64009 40.1665 2.45852 39.6753 1.47612 38.6929C0.49204 37.7088 0 36.5264 0 35.1457V5.02081C0 3.64009 0.49204 2.45852 1.47612 1.47612C2.45852 0.492039 3.64009 0 5.02081 0H45.1873C46.568 0 47.7504 0.492039 48.7345 1.47612C49.7169 2.45852 50.2081 3.64009 50.2081 5.02081V35.1457C50.2081 36.5264 49.7169 37.7088 48.7345 38.6929C47.7504 39.6753 46.568 40.1665 45.1873 40.1665H5.02081ZM25.1041 22.5937L5.02081 10.0416V35.1457H45.1873V10.0416L25.1041 22.5937ZM25.1041 17.5728L45.1873 5.02081H5.02081L25.1041 17.5728ZM5.02081 10.0416V5.02081V35.1457V10.0416Z" fill="white"/>
</svg>
