<svg width="99" height="101" viewBox="0 0 99 101" fill="none" xmlns="http://www.w3.org/2000/svg">
<path d="M21.0943 56.8454V52.4633C21.0943 51.2461 21.4981 50.211 22.3057 49.3579C23.1134 48.5068 24.1349 48.0813 25.3701 48.0813H29.646V52.4633C29.646 53.6806 29.2307 54.7147 28.4003 55.5658C27.5679 56.4189 26.5579 56.8454 25.3701 56.8454H21.0943ZM7.12644 71.4522C5.13103 71.4522 3.44444 70.7462 2.06667 69.3342C0.688889 67.9222 0 66.1937 0 64.1488V56.8454H7.1977C9.14559 56.8454 10.8084 57.5514 12.1862 58.9634C13.564 60.3753 14.2529 62.0795 14.2529 64.0757V71.4522H7.12644ZM31.9264 94.75C30.2161 94.75 28.5894 94.4578 27.0463 93.8736C25.5012 93.2893 24.1111 92.4859 22.8759 91.4634L18.6713 95.7724C18.4337 96.0646 18.1135 96.2107 17.7106 96.2107C17.3058 96.2107 16.9609 96.0646 16.6759 95.7724C16.3908 95.4803 16.2483 95.1268 16.2483 94.712C16.2483 94.2991 16.3908 93.9709 16.6759 93.7275L20.8805 89.4185C19.8828 88.1526 19.0988 86.7279 18.5287 85.1446C17.9586 83.5631 17.6736 81.896 17.6736 80.1432C17.6736 76.102 19.0637 72.6567 21.844 69.8074C24.6223 66.9601 27.9831 65.5364 31.9264 65.5364H46.108V80.1432C46.108 84.1844 44.7303 87.6297 41.9747 90.4789C39.2192 93.3263 35.8697 94.75 31.9264 94.75ZM31.9264 91.8286C35.1096 91.8286 37.8176 90.6844 40.0506 88.396C42.2835 86.1076 43.3525 83.3567 43.2575 80.1432V68.4578H31.9264C28.7908 68.4091 26.1065 69.5289 23.8736 71.8173C21.6406 74.1057 20.5241 76.881 20.5241 80.1432C20.5241 81.5065 20.7379 82.7968 21.1655 84.014C21.5931 85.2312 22.187 86.3267 22.9471 87.3005L30.9287 79.1207C31.2138 78.7799 31.5587 78.6095 31.9635 78.6095C32.3664 78.6095 32.6866 78.7799 32.9241 79.1207C33.2567 79.3642 33.423 79.6933 33.423 80.1081C33.423 80.521 33.2567 80.8735 32.9241 81.1657L24.9425 89.3455C25.8927 90.1245 26.9617 90.7331 28.1494 91.1713C29.3372 91.6095 30.5962 91.8286 31.9264 91.8286Z" fill="white"/>
<path d="M80.3869 100.574C80.3869 98.1887 80.9165 95.8456 81.9757 93.545C83.0366 91.2444 84.44 89.1995 86.186 87.4101C87.932 85.6208 89.9166 84.1825 92.1398 83.0953C94.3647 82.0098 96.6411 81.467 98.9691 81.467C98.9691 83.8954 98.4494 86.2488 97.4101 88.5272C96.3709 90.8073 94.9674 92.842 93.1998 94.6314C91.4339 96.4207 89.4393 97.8581 87.2161 98.9436C84.9913 100.031 82.7148 100.574 80.3869 100.574ZM83.2553 97.6349C86.4978 96.7402 89.2415 95.1528 91.4863 92.8727C93.7311 90.5943 95.29 87.7723 96.163 84.4066C92.8789 85.3013 90.1253 86.8989 87.9021 89.1995C85.6772 91.5 84.1282 94.3118 83.2553 97.6349ZM80.3869 100.574C80.3869 98.1887 79.8573 95.8456 78.798 93.545C77.7371 91.2444 76.3337 89.1995 74.5877 87.4101C72.8418 85.6208 70.8563 84.1825 68.6315 83.0953C66.4082 82.0098 64.1327 81.467 61.8047 81.467C61.8047 83.8954 62.3243 86.2488 63.3636 88.5272C64.4029 90.8073 65.8063 92.842 67.5739 94.6314C69.3398 96.4207 71.3352 97.8581 73.5601 98.9436C75.7833 100.031 78.0589 100.574 80.3869 100.574ZM77.5185 97.6349C74.276 96.7402 71.5323 95.1528 69.2874 92.8727C67.0426 90.5943 65.4837 87.7723 64.6107 84.4066C67.8948 85.3013 70.6493 86.8989 72.8742 89.1995C75.0974 91.5 76.6455 94.3118 77.5185 97.6349ZM87.4331 75.2682C88.3477 75.2682 89.1276 74.9376 89.7727 74.2764C90.4163 73.6169 90.738 72.8186 90.738 71.8813C90.738 71.0718 90.5302 70.4115 90.1145 69.9002C89.6987 69.389 89.1791 69.0695 88.5555 68.9417L85.8742 68.3665C85.7911 69.176 85.5624 69.9113 85.1883 70.5725C84.8142 71.232 84.2945 71.7961 83.6294 72.2647L85.3754 74.3097C85.7079 74.6505 86.0305 74.895 86.3431 75.0433C86.6541 75.1933 87.0174 75.2682 87.4331 75.2682ZM85.8742 67.0884L88.5555 66.5133C89.1791 66.3855 89.6987 66.066 90.1145 65.5547C90.5302 65.0435 90.738 64.3831 90.738 63.5737C90.738 62.6364 90.4163 61.838 89.7727 61.1785C89.1276 60.5173 88.3477 60.1867 87.4331 60.1867C87.0174 60.1867 86.6541 60.2609 86.3431 60.4091C86.0305 60.5591 85.7079 60.8045 85.3754 61.1453L83.6294 63.1903C84.253 63.6589 84.7626 64.223 85.1584 64.8825C85.5525 65.5437 85.7911 66.279 85.8742 67.0884ZM78.142 62.5512C78.5162 62.3808 78.8803 62.2641 79.2345 62.201C79.587 62.1363 79.9712 62.1039 80.3869 62.1039C80.8026 62.1039 81.1875 62.1363 81.5417 62.201C81.8942 62.2641 82.2576 62.3808 82.6317 62.5512L83.6294 59.356C83.9204 58.5039 83.671 57.726 82.8811 57.0222C82.0913 56.3201 81.2599 55.969 80.3869 55.969C79.5139 55.969 78.6825 56.3201 77.8926 57.0222C77.1028 57.726 76.8533 58.5039 77.1443 59.356L78.142 62.5512ZM80.3869 70.7949C81.2599 70.7949 81.9774 70.4967 82.5394 69.9002C83.0998 69.3038 83.38 68.5796 83.38 67.7275C83.38 66.8328 83.089 66.0975 82.507 65.5215C81.925 64.9472 81.2183 64.6601 80.3869 64.6601C79.5139 64.6601 78.7972 64.9583 78.2368 65.5547C77.6748 66.1512 77.3938 66.8754 77.3938 67.7275C77.3938 68.6222 77.6848 69.3566 78.2668 69.9309C78.8487 70.5069 79.5555 70.7949 80.3869 70.7949ZM80.3869 79.486C81.2599 79.486 82.0913 79.1349 82.8811 78.4328C83.671 77.729 83.9204 76.9511 83.6294 76.099L82.6317 72.9038C82.2576 73.0742 81.8942 73.1909 81.5417 73.254C81.1875 73.3187 80.8026 73.3511 80.3869 73.3511C79.9712 73.3511 79.587 73.3187 79.2345 73.254C78.8803 73.1909 78.5162 73.0742 78.142 72.9038L77.1443 76.099C76.8533 76.9511 77.1028 77.729 77.8926 78.4328C78.6825 79.1349 79.5139 79.486 80.3869 79.486ZM74.8995 67.0884C74.9827 66.279 75.2113 65.5437 75.5854 64.8825C75.9596 64.223 76.4792 63.6589 77.1443 63.1903L75.3984 61.1453C75.0658 60.8045 74.744 60.5591 74.4331 60.4091C74.1205 60.2609 73.7563 60.1867 73.3406 60.1867C72.426 60.1867 71.647 60.5173 71.0035 61.1785C70.3583 61.838 70.0357 62.6364 70.0357 63.5737C70.0357 64.3831 70.2436 65.0435 70.6593 65.5547C71.075 66.066 71.5946 66.3855 72.2182 66.5133L74.8995 67.0884ZM73.3406 75.2682C73.7563 75.2682 74.1205 75.1933 74.4331 75.0433C74.744 74.895 75.0658 74.6292 75.3984 74.2458L77.1443 72.2647C76.5208 71.7961 76.012 71.232 75.6179 70.5725C75.2221 69.9113 74.9827 69.176 74.8995 68.3665L72.2182 68.9417C71.5946 69.0695 71.065 69.389 70.6294 69.9002C70.192 70.4115 69.9734 71.0718 69.9734 71.8813C70.0149 72.8186 70.3583 73.6169 71.0035 74.2764C71.647 74.9376 72.426 75.2682 73.3406 75.2682ZM80.3869 82.0421C79.1813 82.0421 78.0481 81.6476 76.9872 80.8586C75.928 80.0713 75.1905 79.0599 74.7748 77.8244H73.3406C71.7193 77.8244 70.3375 77.2493 69.1952 76.099C68.0511 74.9487 67.4791 73.5641 67.4791 71.9452C67.4791 71.2635 67.6246 70.5495 67.9156 69.8031C68.2066 69.0584 68.6223 68.3665 69.1627 67.7275C68.6639 67.0884 68.269 66.3966 67.978 65.6519C67.687 64.9055 67.5415 64.1914 67.5415 63.5098C67.5415 61.8909 68.1027 60.5063 69.2251 59.356C70.3475 58.2057 71.7193 57.6306 73.3406 57.6306H74.7748C75.1905 56.3951 75.928 55.3828 76.9872 54.5938C78.0481 53.8065 79.1813 53.4128 80.3869 53.4128C81.5924 53.4128 82.7256 53.8065 83.7865 54.5938C84.8458 55.3828 85.5832 56.3951 85.9989 57.6306H87.4331C89.0544 57.6306 90.4262 58.2057 91.5487 59.356C92.6711 60.5063 93.2323 61.8909 93.2323 63.5098C93.2323 64.1914 93.0976 64.9055 92.8282 65.6519C92.5572 66.3966 92.1514 67.0884 91.611 67.7275C92.1099 68.3239 92.5048 69.0056 92.7958 69.7724C93.0868 70.5393 93.2323 71.2635 93.2323 71.9452C93.2323 73.5641 92.6711 74.9487 91.5487 76.099C90.4262 77.2493 89.0544 77.8244 87.4331 77.8244H85.9989C85.5832 79.0599 84.8458 80.0713 83.7865 80.8586C82.7256 81.6476 81.5924 82.0421 80.3869 82.0421Z" fill="white"/>
<path d="M52.8274 36.4941V28.0724L46.4359 34.5291L44.5185 32.564L52.8274 24.0487V19.6507H48.536L40.227 28.166L38.3095 26.2009L44.6098 19.6507H36.3921V16.8434H44.6098L38.3095 10.2932L40.227 8.32815L48.536 16.8434H52.8274V12.4454L44.5185 3.93014L46.4359 1.96507L52.8274 8.42172V0H55.5667V8.42172L61.9582 1.96507L63.8756 3.93014L55.5667 12.4454V16.8434H59.8581L68.1671 8.32815L70.0845 10.2932L63.7843 16.8434H72.002V19.6507H63.7843L70.0845 26.2009L68.1671 28.166L59.8581 19.6507H55.5667V24.0487L63.8756 32.564L61.9582 34.5291L55.5667 28.0724V36.4941H52.8274Z" fill="white"/>
</svg>
