<svg width="71" height="80" viewBox="0 0 71 80" fill="none" xmlns="http://www.w3.org/2000/svg">
<path d="M7.21094 79.7795C5.1401 79.7795 3.42131 79.1114 2.05456 77.7753C0.684853 76.4362 0 74.7544 0 72.7299V17.4169C0 15.3924 0.684853 13.7121 2.05456 12.3759C3.42131 11.0368 5.1401 10.3672 7.21094 10.3672H14.9766V0.7146H19.7469V10.3672H51.5859V0.7146H56.0234V10.3672H63.7891C65.8599 10.3672 67.5802 11.0368 68.9499 12.3759C70.3166 13.7121 71 15.3924 71 17.4169V72.7299C71 74.7544 70.3166 76.4362 68.9499 77.7753C67.5802 79.1114 65.8599 79.7795 63.7891 79.7795H7.21094ZM7.21094 75.4413H63.7891C64.5286 75.4413 65.175 75.1694 65.7283 74.6257C66.2844 74.0848 66.5625 73.4529 66.5625 72.7299V34.77H4.4375V72.7299C4.4375 73.4529 4.71558 74.0848 5.27175 74.6257C5.82496 75.1694 6.47135 75.4413 7.21094 75.4413ZM4.4375 30.4317H66.5625V17.4169C66.5625 16.6939 66.2844 16.0619 65.7283 15.5211C65.175 14.9774 64.5286 14.7055 63.7891 14.7055H7.21094C6.47135 14.7055 5.82496 14.9774 5.27175 15.5211C4.71558 16.0619 4.4375 16.6939 4.4375 17.4169V30.4317ZM35.5 50.0624C34.6125 50.0624 33.8182 49.737 33.1171 49.0863C32.413 48.4355 32.0609 47.6402 32.0609 46.7002C32.0609 45.8326 32.413 45.0734 33.1171 44.4227C33.8182 43.7719 34.6125 43.4465 35.5 43.4465C36.3875 43.4465 37.1833 43.7719 37.8874 44.4227C38.5885 45.0734 38.9391 45.8326 38.9391 46.7002C38.9391 47.6402 38.5885 48.4355 37.8874 49.0863C37.1833 49.737 36.3875 50.0624 35.5 50.0624ZM17.75 50.0624C16.8625 50.0624 16.0682 49.737 15.3671 49.0863C14.663 48.4355 14.3109 47.6402 14.3109 46.7002C14.3109 45.8326 14.663 45.0734 15.3671 44.4227C16.0682 43.7719 16.8625 43.4465 17.75 43.4465C18.6375 43.4465 19.4333 43.7719 20.1374 44.4227C20.8385 45.0734 21.1891 45.8326 21.1891 46.7002C21.1891 47.6402 20.8385 48.4355 20.1374 49.0863C19.4333 49.737 18.6375 50.0624 17.75 50.0624ZM53.25 50.0624C52.3625 50.0624 51.5682 49.737 50.8671 49.0863C50.163 48.4355 49.8109 47.6402 49.8109 46.7002C49.8109 45.8326 50.163 45.0734 50.8671 44.4227C51.5682 43.7719 52.3625 43.4465 53.25 43.4465C54.1375 43.4465 54.9333 43.7719 55.6374 44.4227C56.3385 45.0734 56.6891 45.8326 56.6891 46.7002C56.6891 47.6402 56.3385 48.4355 55.6374 49.0863C54.9333 49.737 54.1375 50.0624 53.25 50.0624ZM35.5 66.7647C34.6125 66.7647 33.8182 66.4394 33.1171 65.7886C32.413 65.1379 32.0609 64.3425 32.0609 63.4026C32.0609 62.5349 32.413 61.7584 33.1171 61.0729C33.8182 60.3846 34.6125 60.0404 35.5 60.0404C36.3875 60.0404 37.1833 60.3846 37.8874 61.0729C38.5885 61.7584 38.9391 62.5349 38.9391 63.4026C38.9391 64.3425 38.5885 65.1379 37.8874 65.7886C37.1833 66.4394 36.3875 66.7647 35.5 66.7647ZM17.75 66.7647C16.8625 66.7647 16.0682 66.4394 15.3671 65.7886C14.663 65.1379 14.3109 64.3425 14.3109 63.4026C14.3109 62.5349 14.663 61.7584 15.3671 61.0729C16.0682 60.3846 16.8625 60.0404 17.75 60.0404C18.6375 60.0404 19.4333 60.3846 20.1374 61.0729C20.8385 61.7584 21.1891 62.5349 21.1891 63.4026C21.1891 64.3425 20.8385 65.1379 20.1374 65.7886C19.4333 66.4394 18.6375 66.7647 17.75 66.7647ZM53.25 66.7647C52.3625 66.7647 51.5682 66.4394 50.8671 65.7886C50.163 65.1379 49.8109 64.3425 49.8109 63.4026C49.8109 62.5349 50.163 61.7584 50.8671 61.0729C51.5682 60.3846 52.3625 60.0404 53.25 60.0404C54.1375 60.0404 54.9333 60.3846 55.6374 61.0729C56.3385 61.7584 56.6891 62.5349 56.6891 63.4026C56.6891 64.3425 56.3385 65.1379 55.6374 65.7886C54.9333 66.4394 54.1375 66.7647 53.25 66.7647Z" fill="white"/>
</svg>
