<svg width="45" height="45" viewBox="0 0 45 45" fill="none" xmlns="http://www.w3.org/2000/svg">
<path d="M13.7229 0.642853C6.40114 0.642853 0.428711 6.61528 0.428711 13.937V31.2773C0.428711 38.598 6.40093 44.5714 13.7229 44.5714H31.0631C38.3841 44.5714 44.3573 38.5982 44.3573 31.2773V13.937C44.3573 6.61507 38.3839 0.642853 31.0631 0.642853H13.7229ZM13.7229 4.1109H31.0631C36.5094 4.1109 40.8892 8.48964 40.8892 13.937V31.2773C40.8892 36.7233 36.5092 41.1034 31.0631 41.1034H13.7229C8.2755 41.1034 3.89676 36.7235 3.89676 31.2773V13.937C3.89676 8.48943 8.27529 4.1109 13.7229 4.1109ZM33.9531 8.73496C32.6758 8.73496 31.6411 9.76959 31.6411 11.047C31.6411 12.3244 32.6758 13.359 33.9531 13.359C35.2305 13.359 36.2652 12.3244 36.2652 11.047C36.2652 9.76959 35.2305 8.73496 33.9531 8.73496ZM22.393 11.047C16.0293 11.047 10.8328 16.2435 10.8328 22.6071C10.8328 28.9708 16.0293 34.1673 22.393 34.1673C28.7567 34.1673 33.9531 28.9708 33.9531 22.6071C33.9531 16.2435 28.7567 11.047 22.393 11.047ZM22.393 14.515C26.882 14.515 30.4851 18.1181 30.4851 22.6071C30.4851 27.0962 26.882 30.6992 22.393 30.6992C17.904 30.6992 14.3009 27.0962 14.3009 22.6071C14.3009 18.1181 17.904 14.515 22.393 14.515Z" fill="white"/>
</svg>
