<svg width="112" height="61" viewBox="0 0 112 15" fill="none" xmlns="http://www.w3.org/2000/svg">
<path d="M22.9677 60.7597C19.786 60.7597 17.0517 59.6419 14.7649 57.4062C12.4781 55.1705 11.3347 52.4974 11.3347 49.3869H0V4.47879C0 3.31235 0.397709 2.34031 1.19313 1.56268C1.98854 0.785054 2.98281 0.39624 4.17594 0.39624H80.5359L111.855 28.6825V49.3869H102.907C102.907 52.4974 101.787 55.1705 99.5484 57.4062C97.3133 59.6419 94.5551 60.7597 91.2741 60.7597C88.0924 60.7597 85.3581 59.6419 83.0713 57.4062C80.7845 55.1705 79.6411 52.4974 79.6411 49.3869H34.6006C34.6006 52.4974 33.4831 55.1705 31.2479 57.4062C29.0088 59.6419 26.2487 60.7597 22.9677 60.7597ZM68.0081 26.3496H103.205L79.0445 4.47879H68.0081V26.3496ZM36.092 26.3496H63.8322V4.47879H36.092V26.3496ZM4.17594 26.3496H31.9161V4.47879H4.17594V26.3496ZM22.9677 56.6772C25.0556 56.6772 26.8214 55.9715 28.2651 54.5601C29.7048 53.1526 30.4247 51.4282 30.4247 49.3869C30.4247 47.3456 29.7048 45.6193 28.2651 44.2079C26.8214 42.8004 25.0556 42.0966 22.9677 42.0966C20.8797 42.0966 19.1158 42.8004 17.6761 44.2079C16.2325 45.6193 15.5106 47.3456 15.5106 49.3869C15.5106 51.4282 16.2325 53.1526 17.6761 54.5601C19.1158 55.9715 20.8797 56.6772 22.9677 56.6772ZM91.2741 56.6772C93.362 56.6772 95.1259 55.9715 96.5656 54.5601C98.0093 53.1526 98.7311 51.4282 98.7311 49.3869C98.7311 47.3456 98.0093 45.6193 96.5656 44.2079C95.1259 42.8004 93.362 42.0966 91.2741 42.0966C89.1861 42.0966 87.4223 42.8004 85.9826 44.2079C84.5389 45.6193 83.817 47.3456 83.817 49.3869C83.817 51.4282 84.5389 53.1526 85.9826 54.5601C87.4223 55.9715 89.1861 56.6772 91.2741 56.6772ZM4.17594 45.3043H11.9312C12.5278 43.5547 13.8462 41.9022 15.8865 40.347C17.9227 38.7917 20.2831 38.0141 22.9677 38.0141C25.6522 38.0141 27.939 38.7198 29.8281 40.1312C31.7172 41.5387 33.1092 43.2631 34.0041 45.3043H80.2377C80.8342 43.5547 82.1526 41.9022 84.1929 40.347C86.2291 38.7917 88.5895 38.0141 91.2741 38.0141C93.9586 38.0141 96.2454 38.7198 98.1345 40.1312C100.024 41.5387 101.416 43.2631 102.31 45.3043H107.68V30.4322H4.17594V45.3043Z" fill="white"/>
</svg>
