<svg xmlns="http://www.w3.org/2000/svg" width="256" height="256" viewBox="0 0 100 100"><rect width="100" height="100" rx="50" fill="#ffffff"></rect><path d="M19.55 55.55L19.55 72.65Q19.10 72.80 18.35 72.99Q17.60 73.17 16.70 73.17L16.70 73.17Q13.40 73.17 13.40 70.40L13.40 70.40L13.40 30.50Q13.40 29.30 14.00 28.66Q14.60 28.02 15.88 27.65L15.88 27.65Q18.05 26.98 21.24 26.67Q24.42 26.38 27.42 26.38L27.42 26.38Q36.88 26.38 41.49 30.16Q46.10 33.95 46.10 40.92L46.10 40.92Q46.10 46.10 43.44 49.63Q40.77 53.15 35.38 54.65L35.38 54.65Q37.25 57.05 39.13 59.45Q41 61.85 42.69 63.99Q44.38 66.13 45.69 67.85Q47 69.58 47.75 70.55L47.75 70.55Q47.45 71.83 46.44 72.58Q45.42 73.33 44.38 73.33L44.38 73.33Q43.10 73.33 42.27 72.72Q41.45 72.13 40.55 70.85L40.55 70.85L29.60 55.55L19.55 55.55ZM19.47 50.45L28.10 50.45Q33.65 50.45 36.80 48.05Q39.95 45.65 39.95 40.92L39.95 40.92Q39.95 36.20 36.65 33.84Q33.35 31.48 27.20 31.48L27.20 31.48Q25.17 31.48 23.11 31.66Q21.05 31.85 19.47 32.15L19.47 32.15L19.47 50.45ZM70.17 68.67L70.17 68.67Q75.20 68.67 77.79 66.39Q80.38 64.10 80.38 60.50L80.38 60.50Q80.38 57.35 78.39 55.40Q76.40 53.45 72.13 52.17L72.13 52.17L65.60 50.22Q60.80 48.80 58.06 46.02Q55.32 43.25 55.32 38.52L55.32 38.52Q55.32 35.67 56.41 33.39Q57.50 31.10 59.52 29.52Q61.55 27.95 64.36 27.09Q67.17 26.23 70.70 26.23L70.70 26.23Q73.70 26.23 76.29 26.71Q78.88 27.20 80.79 28.06Q82.70 28.92 83.75 29.98Q84.80 31.02 84.80 32.15L84.80 32.15Q84.80 33.20 84.28 33.95Q83.75 34.70 82.92 35.15L82.92 35.15Q80.97 33.65 77.86 32.52Q74.75 31.40 70.92 31.40L70.92 31.40Q66.50 31.40 63.99 33.27Q61.47 35.15 61.47 38.52L61.47 38.52Q61.47 41.15 63.27 42.80Q65.08 44.45 69.28 45.65L69.28 45.65L73.85 47Q79.78 48.72 83.19 51.84Q86.60 54.95 86.60 60.50L86.60 60.50Q86.60 66.42 82.32 70.10Q78.05 73.77 70.17 73.77L70.17 73.77Q66.72 73.77 63.91 73.17Q61.10 72.58 59.11 71.60Q57.13 70.63 56.04 69.46Q54.95 68.30 54.95 67.17L54.95 67.17Q54.95 65.90 55.74 65.04Q56.52 64.17 57.57 63.80L57.57 63.80Q58.40 64.63 59.60 65.49Q60.80 66.35 62.38 67.06Q63.95 67.77 65.90 68.22Q67.85 68.67 70.17 68.67Z" fill="#000000"></path></svg>